<svg xmlns:xlink="http://www.w3.org/1999/xlink" xmlns="http://www.w3.org/2000/svg" class="icon" aria-label="공유하기" width="24" height="24" viewBox="-1 0 26 24" fill="currentColor" preserveAspectRatio="xMidYMid meet">
<path d="M9.64 14.646a4.5 4.5 0 1 1 0-5.292l4.54-2.476a4.5 4.5 0 1 1 .63.795l-4.675 2.55c.235.545.365 1.146.365 1.777s-.13 1.232-.365 1.777l4.675 2.55a4.5 4.5 0 1 1-.63.795l-4.54-2.476zM18 8a3.5 3.5 0 1 0 0-7 3.5 3.5 0 0 0 0 7zM6 15.5a3.5 3.5 0 1 0 0-7 3.5 3.5 0 0 0 0 7zM18 23a3.5 3.5 0 1 0 0-7 3.5 3.5 0 0 0 0 7z" stroke="#424242" fill="#424242" stroke-width="0.5px" ></path></svg>